<svg xmlns="http://www.w3.org/2000/svg" width="44" height="39.95" viewBox="0 0 44 39.95">
  <path id="ic_contract_gray" d="M23.75,41a1.632,1.632,0,0,0,.575-.125,1.483,1.483,0,0,0,.525-.325L41.7,23.65a4.3,4.3,0,0,0,.975-1.475A4.535,4.535,0,0,0,43,20.5a4.731,4.731,0,0,0-.325-1.7,4.243,4.243,0,0,0-.975-1.5l-9-9a4.243,4.243,0,0,0-1.5-.975A4.731,4.731,0,0,0,29.5,7a4.535,4.535,0,0,0-1.675.325A4.3,4.3,0,0,0,26.35,8.3l-.9.9,4.05,4.1a7.877,7.877,0,0,1,1.15,1.625,4.19,4.19,0,0,1,.5,2.025,4.564,4.564,0,0,1-1.475,3.35A4.683,4.683,0,0,1,26.3,21.75a5.022,5.022,0,0,1-2.075-.375A5.2,5.2,0,0,1,22.7,20.3l-3.65-3.65L10,25.7a1.449,1.449,0,0,0-.35.525,1.669,1.669,0,0,0-.1.575,1.454,1.454,0,0,0,1.5,1.5,1.185,1.185,0,0,0,.575-.15,2.063,2.063,0,0,0,.475-.35L19,20.9,21.1,23l-6.85,6.85a1.4,1.4,0,0,0-.35.55,1.888,1.888,0,0,0-.1.6,1.538,1.538,0,0,0,1.5,1.5,1.374,1.374,0,0,0,.575-.125,1.6,1.6,0,0,0,.475-.325l6.9-6.9,2.1,2.1L18.5,34.1a1.483,1.483,0,0,0-.325.525,1.738,1.738,0,0,0-.125.625,1.538,1.538,0,0,0,1.5,1.5,1.468,1.468,0,0,0,.55-.1,1.524,1.524,0,0,0,.5-.35l6.9-6.9,2.1,2.1-6.9,6.9a1.4,1.4,0,0,0-.35.55,1.752,1.752,0,0,0-.1.55,1.384,1.384,0,0,0,1.5,1.5Zm0,3a4.187,4.187,0,0,1-2.95-1.225,4.977,4.977,0,0,1-1.55-3.025A4.917,4.917,0,0,1,15,35.5a4.749,4.749,0,0,1-2.825-1.425A5.086,5.086,0,0,1,10.8,31.25a5.024,5.024,0,0,1-3.05-1.5,4.178,4.178,0,0,1-1.2-3,4.731,4.731,0,0,1,.325-1.7,4.243,4.243,0,0,1,.975-1.5l11.2-11.2,5.5,5.5a3.13,3.13,0,0,0,.875.625,2.153,2.153,0,0,0,.925.225,1.992,1.992,0,0,0,1.8-1.8,1.622,1.622,0,0,0-.175-.675,2.811,2.811,0,0,0-.575-.775L20.25,8.3a4.243,4.243,0,0,0-1.5-.975A4.731,4.731,0,0,0,17.05,7a4.535,4.535,0,0,0-1.675.325A4.3,4.3,0,0,0,13.9,8.3L6.3,15.9a3.989,3.989,0,0,0-.975,1.475A6.1,6.1,0,0,0,5,19.1a4.062,4.062,0,0,0,.375,1.925A8.042,8.042,0,0,0,6.4,22.7L4.25,24.85A8.768,8.768,0,0,1,2.625,22.2,8.357,8.357,0,0,1,2,19.05a7.379,7.379,0,0,1,.575-2.875A7.475,7.475,0,0,1,4.2,13.75L11.75,6.2a6.966,6.966,0,0,1,2.5-1.625A8.058,8.058,0,0,1,17.1,4.05a7.857,7.857,0,0,1,2.825.525A7.017,7.017,0,0,1,22.4,6.2l.9.9.9-.9a6.966,6.966,0,0,1,2.5-1.625,8.058,8.058,0,0,1,2.85-.525,7.857,7.857,0,0,1,2.825.525A7.017,7.017,0,0,1,34.85,6.2l8.95,8.95a7.264,7.264,0,0,1,1.65,2.5A7.734,7.734,0,0,1,46,20.5a7.542,7.542,0,0,1-.55,2.825A7.326,7.326,0,0,1,43.8,25.8L26.95,42.65a4.625,4.625,0,0,1-1.475,1A4.373,4.373,0,0,1,23.75,44ZM18.85,16.7Z" transform="translate(-2 -4.05)" fill="#8b8b8b"/>
</svg>
