<svg xmlns="http://www.w3.org/2000/svg" width="36" height="40" viewBox="0 0 36 40">
  <path id="ic_document_gray" d="M21.15,31.55,35,17.7l-2.15-2.15-11.7,11.7L15.1,21.2,13,23.3ZM9,42a2.988,2.988,0,0,1-3-3V9A2.988,2.988,0,0,1,9,6H19.25a4.437,4.437,0,0,1,1.6-2.875,4.972,4.972,0,0,1,6.3,0A4.437,4.437,0,0,1,28.75,6H39a2.988,2.988,0,0,1,3,3V39a2.988,2.988,0,0,1-3,3Zm0-3H39V9H9ZM24,8.15a1.679,1.679,0,0,0,1.225-.525,1.692,1.692,0,0,0,0-2.45,1.692,1.692,0,0,0-2.45,0,1.692,1.692,0,0,0,0,2.45A1.679,1.679,0,0,0,24,8.15ZM9,39v0Z" transform="translate(-6 -2)" fill="#8b8b8b"/>
</svg>
