<svg xmlns="http://www.w3.org/2000/svg" width="40" height="40" viewBox="0 0 40 40">
  <path id="ic_monetization_gray" d="M22.55,38.35H25.3v-2.6a8.356,8.356,0,0,0,4.75-1.875,5.2,5.2,0,0,0,1.7-4.075,5.942,5.942,0,0,0-1.45-4.15,13.942,13.942,0,0,0-4.9-3.05,21.458,21.458,0,0,1-4.2-2.15,3,3,0,0,1-1.3-2.55,2.97,2.97,0,0,1,1.125-2.45,4.791,4.791,0,0,1,3.075-.9,4.739,4.739,0,0,1,2.6.7,5.475,5.475,0,0,1,1.85,2.1l2.4-1.15a7.115,7.115,0,0,0-2.25-2.75,6.792,6.792,0,0,0-3.3-1.2V9.7H22.65v2.55a6.662,6.662,0,0,0-4.025,1.875A5.218,5.218,0,0,0,17.15,17.9a5.173,5.173,0,0,0,1.5,3.9,14.534,14.534,0,0,0,4.5,2.7,17.364,17.364,0,0,1,4.6,2.525A3.587,3.587,0,0,1,29,29.8a3.047,3.047,0,0,1-1.325,2.575,5.46,5.46,0,0,1-3.325.975,5.791,5.791,0,0,1-3.475-1.1,5.7,5.7,0,0,1-2.125-3l-2.55.85a10.47,10.47,0,0,0,2.575,3.625A9.316,9.316,0,0,0,22.55,35.65ZM24,44a19.352,19.352,0,0,1-7.75-1.575A20.15,20.15,0,0,1,5.575,31.75a19.978,19.978,0,0,1,0-15.55,19.988,19.988,0,0,1,4.3-6.35A20.5,20.5,0,0,1,16.25,5.575a19.978,19.978,0,0,1,15.55,0A19.969,19.969,0,0,1,42.425,16.2a19.978,19.978,0,0,1,0,15.55,20.5,20.5,0,0,1-4.275,6.375,19.988,19.988,0,0,1-6.35,4.3A19.475,19.475,0,0,1,24,44Zm0-3a16.359,16.359,0,0,0,12.05-4.975A16.424,16.424,0,0,0,41,24a16.4,16.4,0,0,0-4.95-12.05A16.4,16.4,0,0,0,24,7a16.424,16.424,0,0,0-12.025,4.95A16.359,16.359,0,0,0,7,24a16.383,16.383,0,0,0,4.975,12.025A16.382,16.382,0,0,0,24,41ZM24,24Z" transform="translate(-4 -4)" fill="#8b8b8b"/>
</svg>
