<svg xmlns="http://www.w3.org/2000/svg" width="39.2" height="39.95" viewBox="0 0 39.2 39.95">
  <path id="ic_shopping_gray" d="M14.35,43.95A3.6,3.6,0,1,1,16.9,37.8a3.6,3.6,0,0,1-2.55,6.15Zm20,0A3.585,3.585,0,1,1,36.9,42.9,3.472,3.472,0,0,1,34.35,43.95Zm-22.6-33,5.5,11.4h14.4l6.25-11.4Zm-1.5-3H39.7A1.907,1.907,0,0,1,41.45,9a1.988,1.988,0,0,1,0,2.1L34.7,23.25a4.475,4.475,0,0,1-1.425,1.525,3.433,3.433,0,0,1-1.925.575H16.2l-2.8,5.2H37.95v3H13.85a3.356,3.356,0,0,1-3.025-1.4A2.877,2.877,0,0,1,10.85,29l3.2-5.9L6.45,7H2.55V4H8.4Zm7,14.4h0Z" transform="translate(-2.55 -4)" fill="#8b8b8b"/>
</svg>
