<svg xmlns="http://www.w3.org/2000/svg" width="28" height="44" viewBox="0 0 28 44">
  <g id="ic_smartphone_gray" transform="translate(-352 -138)">
    <path id="ic_smartphone_gray-2" data-name="ic_smartphone_gray" d="M13,46a3.076,3.076,0,0,1-3-3V5a2.878,2.878,0,0,1,.9-2.1A2.878,2.878,0,0,1,13,2H35a2.878,2.878,0,0,1,2.1.9A2.878,2.878,0,0,1,38,5V43a3.076,3.076,0,0,1-3,3Zm0-4.5V43H35V41.5Zm0-3H35V9.5H13Zm0-32H35V5H13Zm0,0v0Zm0,35v0Z" transform="translate(342 136)" fill="#8b8b8b"/>
    <g id="그룹_2005" data-name="그룹 2005" transform="translate(0 0.1)">
      <text id="NFT" transform="translate(355.1 159.1)" fill="#8b8b8b" font-size="10" font-family="NanumSquareNeoTTF-eHv, NanumSquare Neo Heavy"><tspan x="0" y="9">NFT</tspan></text>
      <path id="music_note_FILL0_wght400_GRAD0_opsz48" d="M14.275,16.2a2.134,2.134,0,0,1-1.509-3.634,2.052,2.052,0,0,1,1.509-.616,2.126,2.126,0,0,1,.715.113,1.842,1.842,0,0,1,.56.312V6h3.315V7.913H16.4v6.163A2.1,2.1,0,0,1,14.275,16.2Z" transform="translate(350.85 142.9)" fill="#8b8b8b"/>
    </g>
  </g>
</svg>
