<svg xmlns="http://www.w3.org/2000/svg" width="23.999" height="22.001" viewBox="0 0 23.999 22.001">
  <path id="ic_ticket_off" d="M23.258,10.412a.994.994,0,0,1,.738.877,1.069,1.069,0,0,1-.019.3c-.863,3.579-1.906,7.115-2.86,10.673a1,1,0,0,1-.878.736,1.029,1.029,0,0,1-.3-.017c-6.439-1.551-12.8-3.418-19.2-5.128A.993.993,0,0,1,0,16.974a1.1,1.1,0,0,1,.018-.3C.886,13.1,1.929,9.56,2.882,6a1,1,0,0,1,1.176-.719M2.226,16.177l17.216,4.6,2.331-8.692L4.558,7.487q-1.167,4.344-2.332,8.69m11.129,2.154.966.262.444-1.658-.965-.262Zm.7-2.625.966.262.5-1.875-.967-.261Zm.761-2.84.967.261.444-1.658-.966-.261ZM7.179,4.371c4.259-1.125,8.533-2.2,12.788-3.337a1,1,0,0,1,1.211.657c.678,2.3,1.28,4.614,1.88,6.931l-2.256-.6L19.519,3.224,11.2,5.447,7.179,4.371Z" transform="translate(0 -1)" fill="#8b8b8b" fill-rule="evenodd"/>
</svg>
